:version 1.10
:name ASF
:units
  mass 1
  length 1
  angle deg
:documentation
  ASF file generated by Kaydara
:root
  axis xyz
  order  tx ty tz rx ry rz
  position 0 0 0
  orientation 0 0 0
:bonedata
  begin
    id 1
    name RightUpLegDummy
    direction -0.65628 -0.754516 0.00165102
    length 4.76918
    axis 0 0 0 xyz
  end
  begin
    id 2
    name RightUpLeg
    direction -0.145584 -0.923362 0.355256
    length 17.9961
    axis -24.7611 -13.1006 1.78531 xyz
    dof rx ry rz
  end
  begin
    id 3
    name RightLeg
    direction 0.263379 0.172355 -0.949171
    length 13.3386
    axis 89.6202 -21.1929 12.3855 xyz
    dof rx ry rz
  end
  begin
    id 4
    name RightFoot
    direction 0.224283 -0.968777 -0.105675
    length 5.86697
    axis 56.995 -39.6905 17.3365 xyz
    dof rx ry rz
  end
  begin
    id 5
    name RightToes
    direction -0.0806345 -0.9037 0.420506
    length 4.75197
    axis 146.825 -39.7828 17.6019 xyz
    dof rx ry rz
  end
  begin
    id 6
    name SpineDummy
    direction -3.39852e-014 1 9.33296e-014
    length 8.13779
    axis 0 0 0 xyz
  end
  begin
    id 7
    name Spine
    direction -0.156609 0.733703 0.661176
    length 7.14978
    axis 41.2365 5.68757 17.0844 xyz
    dof rx ry rz
  end
  begin
    id 8
    name Spine1
    direction 0 0 0
    length 0
    axis 42.8809 47.8308 -3.36039 xyz
    dof rx ry rz
  end
  begin
    id 9
    name HEadDummy
    direction 0.546431 0.701947 0.456819
    length 3.55512
    axis 42.8809 47.8308 -3.36039 xyz
  end
  begin
    id 10
    name HEad
    direction 0.23444 0.828559 0.508457
    length 7.35827
    axis 51.1864 49.2662 27.4903 xyz
    dof rx ry rz
  end
  begin
    id 11
    name LeftShoulder1Dummy
    direction 0.431183 0.475873 -0.766568
    length 2.49352
    axis 42.8809 47.8308 -3.36039 xyz
  end
  begin
    id 12
    name LeftShoulder1
    direction 0.268187 -0.383402 -0.883786
    length 4.48604
    axis -119.517 0.106469 35.1736 xyz
    dof rx ry rz
  end
  begin
    id 13
    name LeftArm
    direction 0.380567 -0.703221 -0.600541
    length 10.1142
    axis -5.41825 36.2925 7.8293 xyz
    dof rx ry rz
  end
  begin
    id 14
    name LeftForeArm
    direction 0.541071 -0.732356 -0.413396
    length 9.39839
    axis 4.65387 33.7604 7.81644 xyz
    dof rx ry rz
  end
  begin
    id 15
    name LeftHand
    direction 0.847511 -0.389379 -0.360707
    length 3.66142
    axis 7.65593 21.1436 -24.6758 xyz
    dof rx ry rz
  end
  begin
    id 16
    name RightShoulderDummy
    direction -0.692546 0.541855 0.476208
    length 2.49352
    axis 42.8809 47.8308 -3.36039 xyz
  end
  begin
    id 17
    name RightShoulder
    direction -0.870808 -0.316653 0.376065
    length 4.48602
    axis 141.571 51.133 -100.254 xyz
    dof rx ry rz
  end
  begin
    id 18
    name RightArm
    direction 0.366897 -0.87275 0.322015
    length 10.1142
    axis 92.3258 71.2036 138.917 xyz
    dof rx ry rz
  end
  begin
    id 19
    name RightForeArm
    direction 0.702487 -0.694568 0.155197
    length 9.39835
    axis 153.863 41.5092 -176.604 xyz
    dof rx ry rz
  end
  begin
    id 20
    name RightHand
    direction 0.79502 -0.601276 0.0800636
    length 3.66142
    axis 154.247 4.59222 142.9 xyz
    dof rx ry rz
  end
  begin
    id 21
    name LeftUpLegDummy
    direction 0.65628 -0.754516 0.00165102
    length 4.76919
    axis 0 0 0 xyz
  end
  begin
    id 22
    name LeftUpLeg
    direction -0.1277 -0.689368 0.713067
    length 17.9961
    axis -48.3385 -17.8675 0.791927 xyz
    dof rx ry rz
  end
  begin
    id 23
    name LeftLeg
    direction 0.109849 -0.991246 -0.0732378
    length 13.3386
    axis -2.05791 -7.30784 1.72042 xyz
    dof rx ry rz
  end
  begin
    id 24
    name LeftFoot
    direction 0.0448355 -0.272614 0.961078
    length 5.86697
    axis -18.7733 -7.89606 10.2113 xyz
    dof rx ry rz
  end
  begin
    id 25
    name LeftToes
    direction -0.18506 0.293668 0.937823
    length 4.75197
    axis 71.2267 -7.89606 10.2113 xyz
    dof rx ry rz
  end
:hierarchy
  begin
    root RightUpLegDummy SpineDummy LeftUpLegDummy
    RightUpLegDummy RightUpLeg
    RightUpLeg RightLeg
    RightLeg RightFoot
    RightFoot RightToes
    SpineDummy Spine
    Spine Spine1
    Spine1 HEadDummy LeftShoulder1Dummy RightShoulderDummy
    HEadDummy HEad
    LeftShoulder1Dummy LeftShoulder1
    LeftShoulder1 LeftArm
    LeftArm LeftForeArm
    LeftForeArm LeftHand
    RightShoulderDummy RightShoulder
    RightShoulder RightArm
    RightArm RightForeArm
    RightForeArm RightHand
    LeftUpLegDummy LeftUpLeg
    LeftUpLeg LeftLeg
    LeftLeg LeftFoot
    LeftFoot LeftToes
  end

:SAMPLES-PER-SECOND 30
:FULLY-SPECIFIED
:DEGREES
254
root  -0.0835435 36.2429 -36.7384 169.234 -11.735 175.041
RightUpLeg  9.54421 -1.73516 -8.44884
RightLeg  -32.2646 -26.1539 3.15132
RightFoot  23.2537 3.1833 -13.9753
RightToes  -1.27222e-014 -6.36111e-015 6.36111e-015
Spine  -26.5279 -16.8742 -16.6487
Spine1  19.4415 -11.1158 36.8966
HEad  -10.6297 -25.1194 -13.1752
LeftShoulder1  6.36111e-015 -1.33558e-015 6.49777e-015
LeftArm  10.2138 -13.2178 -42.5844
LeftForeArm  -18.7575 -43.0366 10.7539
LeftHand  0.519648 2.7437 -4.99237
RightShoulder  -4.77083e-015 -6.36111e-015 -3.18055e-015
RightArm  49.2569 -39.724 -4.28705
RightForeArm  -19.6739 -15.7416 -6.50164
RightHand  2.6164 -2.52088 -14.0149
LeftUpLeg  28.786 21.3966 5.53613
LeftLeg  3.69305 -9.89153 -1.49952
LeftFoot  -5.1844 2.02138 -8.03255
LeftToes  9.54166e-015 4.2066e-011 -8.07781e-011
255
root  -0.264939 36.7974 -38.1388 169.253 -9.01876 174.752
RightUpLeg  5.18104 -0.151262 -8.28694
RightLeg  -34.4796 -25.4108 3.38033
RightFoot  24.1404 3.26801 -14.2692
RightToes  -1.27222e-014 -6.36111e-015 6.36111e-015
Spine  -28.0242 -19.4077 -18.1334
Spine1  16.6439 -13.0741 38.9476
HEad  -5.31887 -19.3402 -14.9415
LeftShoulder1  6.36111e-015 -1.33558e-015 6.49777e-015
LeftArm  10.6036 -15.4253 -42.0664
LeftForeArm  -20.2224 -43.9789 11.9483
LeftHand  0.109406 2.05461 -6.72135
RightShoulder  -4.77083e-015 -6.36111e-015 -3.18055e-015
RightArm  55.1131 -45.1986 -11.0033
RightForeArm  -22.1133 -17.2323 -6.0625
RightHand  3.24145 -3.37791 -16.1987
LeftUpLeg  33.7149 22.6567 7.71383
LeftLeg  0.317143 -9.95569 -1.31843
LeftFoot  -5.55178 2.15091 -8.66889
LeftToes  9.54166e-015 4.2066e-011 -8.07781e-011
256
root  -0.45589 37.4978 -39.5132 169.267 -6.63135 174.861
RightUpLeg  2.17469 1.23856 -7.41643
RightLeg  -40.4781 -22.6387 3.28036
RightFoot  25.1546 3.23178 -14.4101
RightToes  -1.27222e-014 -6.36111e-015 6.36111e-015
Spine  -29.6799 -21.7741 -18.2355
Spine1  13.3314 -15.2249 41.1824
HEad  -0.402838 -12.9607 -16.2258
LeftShoulder1  6.36111e-015 -1.33558e-015 6.49777e-015
LeftArm  12.2585 -17.3025 -40.3688
LeftForeArm  -21.8013 -44.193 12.7606
LeftHand  -0.210426 1.2648 -7.40448
RightShoulder  -4.77083e-015 -6.36111e-015 -3.18055e-015
RightArm  62.0521 -47.8592 -17.4029
RightForeArm  -22.7417 -15.1346 -6.99906
RightHand  3.25359 -3.3206 -16.3781
LeftUpLeg  38.934 23.6376 10.1401
LeftLeg  -4.23028 -10.2521 -1.11252
LeftFoot  -4.17221 2.38137 -9.15155
LeftToes  9.54166e-015 4.2066e-011 -8.07781e-011
257
root  -0.608223 38.1463 -40.8441 169.129 -4.52091 174.984
RightUpLeg  0.978729 2.37556 -6.50475
RightLeg  -49.5319 -18.9209 2.39443
RightFoot  24.4986 3.31822 -14.4084
RightToes  -1.27222e-014 -6.36111e-015 6.36111e-015
Spine  -31.5146 -23.8884 -17.8823
Spine1  11.2018 -17.1749 43.5289
HEad  2.70813 -7.35994 -16.6293
LeftShoulder1  6.36111e-015 -1.33558e-015 6.49777e-015
LeftArm  14.2456 -19.7251 -38.1511
LeftForeArm  -22.9538 -43.6158 12.8501
LeftHand  -0.220918 1.06551 -6.82582
RightShoulder  -4.77083e-015 -6.36111e-015 -3.18055e-015
RightArm  68.4035 -48.1283 -22.4466
RightForeArm  -23.065 -11.0178 -8.94074
RightHand  2.84814 -2.72377 -15.0685
LeftUpLeg  44.3002 24.8434 13.6551
LeftLeg  -8.47352 -11.9046 -0.859506
LeftFoot  -1.93651 2.83984 -10.1377
LeftToes  9.54166e-015 4.2066e-011 -8.07781e-011
258
root  -0.71482 38.5823 -42.1511 169.092 -2.3954 174.953
RightUpLeg  1.02343 3.44858 -5.58734
RightLeg  -61.1428 -15.5647 0.838116
RightFoot  24.5713 3.7045 -14.9678
RightToes  -1.27222e-014 -6.36111e-015 6.36111e-015
Spine  -33.5425 -25.8994 -17.8275
Spine1  10.1534 -18.7523 46.4402
HEad  4.19313 -2.60817 -16.645
LeftShoulder1  6.36111e-015 -1.33558e-015 6.49777e-015
LeftArm  15.9543 -21.7889 -35.697
LeftForeArm  -23.7296 -43.1059 12.8105
LeftHand  -0.0572545 1.37291 -6.14699
RightShoulder  -4.77083e-015 -6.36111e-015 -3.18055e-015
RightArm  73.7486 -46.6297 -26.7362
RightForeArm  -24.4628 -7.21991 -11.0917
RightHand  2.18882 -1.53036 -13.1435
LeftUpLeg  49.3955 25.917 17.5515
LeftLeg  -11.9504 -14.6356 -0.350278
LeftFoot  0.188322 3.29876 -11.0155
LeftToes  9.54166e-015 4.2066e-011 -8.07781e-011
259
root  -0.835104 38.8439 -43.395 169.305 -0.515302 175.054
RightUpLeg  1.96971 4.40436 -4.53731
RightLeg  -74.9446 -13.2449 -0.801048
RightFoot  25.396 3.89032 -15.372
RightToes  -1.27222e-014 -6.36111e-015 6.36111e-015
Spine  -35.5862 -27.4496 -17.5052
Spine1  9.28663 -19.8542 50.4234
HEad  4.62894 1.54618 -16.7924
LeftShoulder1  6.36111e-015 -1.33558e-015 6.49777e-015
LeftArm  17.212 -22.9709 -33.0231
LeftForeArm  -24.0994 -42.9257 12.8308
LeftHand  -0.000974286 1.51348 -6.04394
RightShoulder  -4.77083e-015 -6.36111e-015 -3.18055e-015
RightArm  78.0149 -43.933 -30.4719
RightForeArm  -27.012 -4.17283 -13.2993
RightHand  1.43437 0.0181791 -10.9044
LeftUpLeg  53.3716 25.5384 18.508
LeftLeg  -15.7705 -15.8334 -0.0514815
LeftFoot  1.19026 3.53706 -11.4574
LeftToes  9.54166e-015 4.2066e-011 -8.07781e-011
260
root  -0.959122 38.8828 -44.5543 169.628 0.924501 175.087
RightUpLeg  3.44733 5.31608 -3.80915
RightLeg  -89.314 -11.7679 -2.68538
RightFoot  25.6917 2.77911 -13.8848
RightToes  -1.27222e-014 -6.36111e-015 6.36111e-015
Spine  -37.0822 -28.5848 -17.0932
Spine1  8.48596 -20.5939 54.6599
HEad  4.40983 4.83704 -16.9894
LeftShoulder1  6.36111e-015 -1.33558e-015 6.49777e-015
LeftArm  18.4212 -24.2498 -30.4749
LeftForeArm  -23.733 -42.3656 12.2961
LeftHand  -0.106959 1.25653 -6.26776
RightShoulder  -4.77083e-015 -6.36111e-015 -3.18055e-015
RightArm  81.235 -40.9414 -33.431
RightForeArm  -30.2501 -1.13316 -15.9507
RightHand  0.831823 1.31018 -8.84435
LeftUpLeg  56.3314 24.6745 16.8224
LeftLeg  -19.5225 -14.8651 -0.15526
LeftFoot  0.109498 3.46408 -11.5954
LeftToes  9.54166e-015 4.2066e-011 -8.07781e-011
261
root  -1.01251 38.6251 -45.6654 169.723 2.2983 174.928
RightUpLeg  4.75876 7.85763 -2.94618
RightLeg  -100.565 -10.5209 -2.6358
RightFoot  27.643 1.34563 -12.3549
RightToes  -1.27222e-014 -6.36111e-015 6.36111e-015
Spine  -37.6041 -29.3201 -16.9834
Spine1  7.83814 -21.0198 58.0165
HEad  3.81937 7.03351 -17.0592
LeftShoulder1  6.36111e-015 -1.33558e-015 6.49777e-015
LeftArm  19.502 -25.5519 -28.4289
LeftForeArm  -22.322 -41.6305 11.2678
LeftHand  -0.218447 0.980266 -6.49482
RightShoulder  -4.77083e-015 -6.36111e-015 -3.18055e-015
RightArm  83.2881 -38.4041 -35.6944
RightForeArm  -34.1225 1.88829 -19.1354
RightHand  0.556903 1.91075 -7.78353
LeftUpLeg  59.3363 24.8067 16.3135
LeftLeg  -21.7398 -13.6268 -0.313265
LeftFoot  -2.48195 3.05076 -11.0903
LeftToes  9.54166e-015 4.2066e-011 -8.07781e-011
262
root  -1.00258 38.2024 -46.7182 169.397 4.45602 175.201
RightUpLeg  4.99117 11.3107 -0.505793
RightLeg  -103.653 -10.1458 -0.601655
RightFoot  32.037 1.93666 -14.0067
RightToes  -1.27222e-014 -6.36111e-015 6.36111e-015
Spine  -36.8535 -29.043 -16.728
Spine1  7.08603 -20.9794 60.7321
HEad  2.69841 8.88294 -17.8112
LeftShoulder1  6.36111e-015 -1.33558e-015 6.49777e-015
LeftArm  19.0883 -24.0126 -26.4957
LeftForeArm  -19.7815 -41.6506 10.3245
LeftHand  -0.166233 1.1355 -6.47852
RightShoulder  -4.77083e-015 -6.36111e-015 -3.18055e-015
RightArm  82.6047 -36.2501 -36.3942
RightForeArm  -38.2432 4.19593 -22.2315
RightHand  0.546941 1.9668 -7.81607
LeftUpLeg  62.4873 25.4431 17.8622
LeftLeg  -21.8619 -12.214 -0.321825
LeftFoot  -5.42171 2.47723 -9.95494
LeftToes  9.54166e-015 4.2066e-011 -8.07781e-011
